<?xml version="1.0" encoding="utf-8"?>
<!-- Generator: Adobe Illustrator 21.1.0, SVG Export Plug-In . SVG Version: 6.00 Build 0)  -->
<svg version="1.1" id="Layer_1" xmlns="http://www.w3.org/2000/svg" xmlns:xlink="http://www.w3.org/1999/xlink" x="0px" y="0px"
	 viewBox="0 0 46 46" style="enable-background:new 0 0 46 46;" xml:space="preserve">
<style type="text/css">
	.st0{fill:#FFFFFF;}
</style>
<g>
	<path class="st0" d="M23,0.7C10.7,0.7,0.7,10.7,0.7,23c0,12.3,10,22.3,22.3,22.3s22.3-10,22.3-22.3C45.3,10.7,35.3,0.7,23,0.7z
		 M33.4,18.6c0,0.2,0,0.4,0,0.6c0,6.4-4.9,13.9-13.9,13.9c-2.8,0-5.3-0.8-7.5-2.2c0.4,0,0.8,0.1,1.2,0.1c2.3,0,4.4-0.8,6.1-2.1
		c-2.1,0-3.9-1.4-4.6-3.4c0.3,0.1,0.6,0.1,0.9,0.1c0.4,0,0.9-0.1,1.3-0.2C14.7,25,13,23,13,20.7c0,0,0,0,0-0.1
		c0.7,0.4,1.4,0.6,2.2,0.6c-1.3-0.9-2.2-2.4-2.2-4.1c0-0.9,0.2-1.7,0.7-2.4c2.4,2.9,6,4.9,10,5.1c-0.1-0.4-0.1-0.7-0.1-1.1
		c0-2.7,2.2-4.9,4.9-4.9c1.4,0,2.7,0.6,3.6,1.5c1.1-0.2,2.2-0.6,3.1-1.2c-0.4,1.1-1.1,2.1-2.1,2.7c1-0.1,1.9-0.4,2.8-0.8
		C35.2,17.1,34.3,17.9,33.4,18.6z"/>
</g>
</svg>
