<?xml version="1.0" encoding="utf-8"?>
<!-- Generator: Adobe Illustrator 21.1.0, SVG Export Plug-In . SVG Version: 6.00 Build 0)  -->
<svg version="1.1" id="Layer_1" xmlns="http://www.w3.org/2000/svg" xmlns:xlink="http://www.w3.org/1999/xlink" x="0px" y="0px"
	 viewBox="0 0 46 46" style="enable-background:new 0 0 46 46;" xml:space="preserve">
<style type="text/css">
	.st0{fill:#FFFFFF;}
</style>
<g>
	<circle class="st0" cx="23" cy="22.7" r="4.7"/>
	<path class="st0" d="M34,14.4c-0.3-0.7-0.6-1.1-1.1-1.6c-0.5-0.5-1-0.8-1.6-1.1c-0.5-0.2-1.2-0.4-2.6-0.5c-1.5-0.1-1.9-0.1-5.7-0.1
		s-4.2,0-5.7,0.1c-1.4,0.1-2.1,0.3-2.6,0.5c-0.7,0.3-1.1,0.6-1.6,1.1c-0.5,0.5-0.8,1-1.1,1.6c-0.2,0.5-0.4,1.2-0.5,2.6
		c-0.1,1.5-0.1,1.9-0.1,5.7s0,4.2,0.1,5.7c0.1,1.4,0.3,2.1,0.5,2.6c0.3,0.7,0.6,1.1,1.1,1.6c0.5,0.5,1,0.8,1.6,1.1
		c0.5,0.2,1.2,0.4,2.6,0.5c1.5,0.1,1.9,0.1,5.7,0.1c3.8,0,4.2,0,5.7-0.1c1.4-0.1,2.1-0.3,2.6-0.5c0.7-0.3,1.1-0.6,1.6-1.1
		s0.8-1,1.1-1.6c0.2-0.5,0.4-1.2,0.5-2.6c0.1-1.5,0.1-1.9,0.1-5.7s0-4.2-0.1-5.7C34.4,15.6,34.2,14.9,34,14.4z M23,29.9
		c-4,0-7.2-3.2-7.2-7.2s3.2-7.2,7.2-7.2c4,0,7.2,3.2,7.2,7.2S27,29.9,23,29.9z M30.5,16.8c-0.9,0-1.7-0.8-1.7-1.7
		c0-0.9,0.8-1.7,1.7-1.7c0.9,0,1.7,0.8,1.7,1.7C32.2,16.1,31.4,16.8,30.5,16.8z"/>
	<path class="st0" d="M23,0.7C10.7,0.7,0.7,10.7,0.7,23c0,12.3,10,22.3,22.3,22.3c12.3,0,22.3-10,22.3-22.3
		C45.3,10.7,35.3,0.7,23,0.7z M37,28.5c-0.1,1.5-0.3,2.5-0.7,3.4c-0.4,0.9-0.8,1.7-1.6,2.5c-0.8,0.8-1.6,1.3-2.5,1.6
		c-0.9,0.3-1.9,0.6-3.4,0.7c-1.5,0.1-2,0.1-5.8,0.1c-3.8,0-4.3,0-5.8-0.1c-1.5-0.1-2.5-0.3-3.4-0.7c-0.9-0.4-1.7-0.8-2.5-1.6
		c-0.8-0.8-1.3-1.6-1.6-2.5C9.3,31,9,30,9,28.5c-0.1-1.5-0.1-2-0.1-5.8s0-4.3,0.1-5.8c0.1-1.5,0.3-2.5,0.7-3.4
		c0.4-0.9,0.8-1.7,1.6-2.5c0.8-0.8,1.6-1.3,2.5-1.6c0.9-0.3,1.9-0.6,3.4-0.7c1.5-0.1,2-0.1,5.8-0.1c3.8,0,4.3,0,5.8,0.1
		c1.5,0.1,2.5,0.3,3.4,0.7c0.9,0.4,1.7,0.8,2.5,1.6c0.8,0.8,1.3,1.6,1.6,2.5c0.3,0.9,0.6,1.9,0.7,3.4c0.1,1.5,0.1,2,0.1,5.8
		S37.1,27,37,28.5z"/>
</g>
</svg>
