<?xml version="1.0" encoding="utf-8"?>
<!-- Generator: Adobe Illustrator 21.1.0, SVG Export Plug-In . SVG Version: 6.00 Build 0)  -->
<svg version="1.1" id="Layer_1" xmlns="http://www.w3.org/2000/svg" xmlns:xlink="http://www.w3.org/1999/xlink" x="0px" y="0px"
	 viewBox="0 0 46 46" style="enable-background:new 0 0 46 46;" xml:space="preserve">
<style type="text/css">
	.st0{fill:#FFFFFF;}
</style>
<path class="st0" d="M23,0.6C10.7,0.6,0.7,10.6,0.7,23c0,12.3,10,22.3,22.3,22.3s22.3-10,22.3-22.3C45.4,10.6,35.4,0.6,23,0.6z
	 M29,22.9h-3.9c0,6.2,0,13.8,0,13.8h-5.7c0,0,0-7.5,0-13.8h-2.7V18h2.7v-3.2c0-2.3,1.1-5.8,5.8-5.8l4.2,0v4.7c0,0-2.6,0-3.1,0
	c-0.5,0-1.2,0.3-1.2,1.3V18h4.4L29,22.9z"/>
</svg>
